<?xml version="1.0" encoding="utf-8"?>
<!-- Generator: Adobe Illustrator 22.0.1, SVG Export Plug-In . SVG Version: 6.00 Build 0)  -->
<svg version="1.1" id="Layer_1" xmlns="http://www.w3.org/2000/svg" xmlns:xlink="http://www.w3.org/1999/xlink" x="0px" y="0px"
	 viewBox="0 0 841.9 595.3" style="enable-background:new 0 0 841.9 595.3;" xml:space="preserve">
<style type="text/css">
	.st0{fill:none;stroke:#74CFE8;stroke-miterlimit:10;}
	.st1{fill:none;stroke:#CAB82E;stroke-miterlimit:10;}
	.st2{fill:none;stroke:#E298C2;stroke-miterlimit:10;}
</style>
<path class="st0" d="M106.6,263.7H95.3v36.9c0,2.1-0.5,3.7-1.4,4.7c-0.9,1-2.2,1.5-3.7,1.5c-1.5,0-2.8-0.5-3.7-1.6
	c-1-1-1.4-2.6-1.4-4.7v-36.9H73.9c-1.8,0-3.1-0.4-3.9-1.2s-1.3-1.8-1.3-3.1c0-1.3,0.4-2.4,1.3-3.1c0.9-0.8,2.2-1.1,3.9-1.1h32.7
	c1.8,0,3.1,0.4,4,1.2c0.9,0.8,1.3,1.8,1.3,3.1s-0.4,2.3-1.3,3.1C109.6,263.4,108.3,263.7,106.6,263.7z"/>
<path class="st1" d="M125.6,260.1v14c1.2-1.4,2.4-2.5,3.5-3.3c1.1-0.8,2.4-1.4,3.8-1.8c1.4-0.4,2.9-0.6,4.5-0.6
	c2.4,0,4.5,0.5,6.4,1.5c1.9,1,3.3,2.5,4.4,4.4c0.7,1.1,1.1,2.4,1.4,3.8c0.2,1.4,0.3,3,0.3,4.8v18.1c0,1.9-0.4,3.3-1.3,4.3
	s-2,1.5-3.4,1.5c-3.1,0-4.7-1.9-4.7-5.7v-16c0-3-0.5-5.3-1.4-7c-0.9-1.6-2.6-2.4-5.1-2.4c-1.7,0-3.2,0.5-4.6,1.4s-2.4,2.3-3,3.9
	c-0.5,1.4-0.8,3.9-0.8,7.5v12.5c0,1.9-0.4,3.3-1.3,4.3c-0.8,1-2,1.5-3.5,1.5c-3.1,0-4.7-1.9-4.7-5.7v-41c0-1.9,0.4-3.4,1.2-4.3
	c0.8-1,2-1.4,3.4-1.4c1.5,0,2.7,0.5,3.5,1.5S125.6,258.3,125.6,260.1z"/>
<path class="st1" d="M185.5,290h-18.5c0,2.1,0.5,4,1.3,5.7c0.8,1.6,2,2.9,3.4,3.7c1.4,0.8,2.9,1.2,4.6,1.2c1.1,0,2.2-0.1,3.1-0.4
	c0.9-0.3,1.8-0.7,2.7-1.2c0.9-0.6,1.7-1.2,2.4-1.8c0.7-0.6,1.7-1.5,2.9-2.6c0.5-0.4,1.2-0.6,2.1-0.6c1,0,1.8,0.3,2.4,0.8
	c0.6,0.5,0.9,1.3,0.9,2.3c0,0.9-0.3,1.9-1,3c-0.7,1.1-1.7,2.2-3,3.3s-3,1.9-5.1,2.6s-4.4,1-7,1c-6.1,0-10.8-1.7-14.2-5.2
	c-3.4-3.5-5.1-8.2-5.1-14.1c0-2.8,0.4-5.4,1.2-7.8c0.8-2.4,2-4.4,3.6-6.1c1.6-1.7,3.6-3,5.9-3.9s4.9-1.4,7.8-1.4
	c3.7,0,6.9,0.8,9.5,2.3c2.6,1.6,4.6,3.6,5.9,6c1.3,2.5,2,5,2,7.5c0,2.4-0.7,3.9-2,4.6C189.9,289.6,188,290,185.5,290z M167.1,284.6
	h17.1c-0.2-3.2-1.1-5.6-2.6-7.3c-1.5-1.6-3.5-2.4-6-2.4c-2.4,0-4.3,0.8-5.8,2.4C168.3,279,167.4,281.4,167.1,284.6z"/>
<path class="st1" d="M249.2,260.6v26.6c0,2.3-0.1,4.3-0.3,5.9c-0.2,1.6-0.6,3.3-1.3,4.9c-1.2,2.8-3.1,5-5.7,6.5
	c-2.7,1.6-5.9,2.3-9.7,2.3c-3.4,0-6.3-0.5-8.6-1.6c-2.3-1.1-4.1-2.8-5.6-5.3c-0.7-1.3-1.3-2.8-1.8-4.5c-0.5-1.7-0.7-3.3-0.7-4.8
	c0-1.6,0.5-2.9,1.4-3.7c0.9-0.9,2.1-1.3,3.5-1.3c1.4,0,2.4,0.4,3.1,1.2c0.7,0.8,1.2,2,1.6,3.7c0.4,1.8,0.8,3.2,1.2,4.3
	c0.4,1.1,1.1,2,2,2.7s2.2,1.1,3.9,1.1c4.5,0,6.8-3.3,6.8-10v-28.1c0-2.1,0.5-3.6,1.4-4.7c0.9-1,2.2-1.6,3.7-1.6
	c1.6,0,2.9,0.5,3.8,1.6C248.7,257,249.2,258.6,249.2,260.6z"/>
<path class="st2" d="M295.1,287.7c0,2.8-0.4,5.4-1.3,7.8c-0.9,2.4-2.1,4.4-3.8,6.1c-1.7,1.7-3.6,3-6,3.9c-2.3,0.9-4.9,1.4-7.8,1.4
	c-2.9,0-5.4-0.5-7.7-1.4c-2.3-0.9-4.3-2.2-5.9-4c-1.7-1.7-2.9-3.8-3.8-6.1s-1.3-4.9-1.3-7.8c0-2.9,0.4-5.5,1.3-7.9
	c0.9-2.4,2.1-4.4,3.8-6.1c1.6-1.7,3.6-3,6-3.9c2.3-0.9,4.9-1.4,7.7-1.4c2.9,0,5.5,0.5,7.8,1.4c2.3,0.9,4.3,2.2,6,3.9
	c1.7,1.7,2.9,3.7,3.8,6.1C294.6,282.2,295.1,284.8,295.1,287.7z M285.6,287.7c0-3.9-0.8-6.9-2.5-9c-1.7-2.1-4-3.2-6.8-3.2
	c-1.8,0-3.5,0.5-4.9,1.4c-1.4,1-2.5,2.4-3.3,4.2c-0.8,1.9-1.1,4.1-1.1,6.5c0,2.5,0.4,4.6,1.1,6.5s1.8,3.3,3.2,4.2
	c1.4,1,3,1.5,4.9,1.5c2.9,0,5.1-1.1,6.8-3.2C284.7,294.5,285.6,291.5,285.6,287.7z"/>
<path class="st2" d="M328.9,290h-18.5c0,2.1,0.5,4,1.3,5.7c0.8,1.6,2,2.9,3.4,3.7c1.4,0.8,2.9,1.2,4.6,1.2c1.1,0,2.2-0.1,3.1-0.4
	c0.9-0.3,1.8-0.7,2.7-1.2c0.9-0.6,1.7-1.2,2.4-1.8c0.7-0.6,1.7-1.5,2.9-2.6c0.5-0.4,1.2-0.6,2.1-0.6c1,0,1.8,0.3,2.4,0.8
	c0.6,0.5,0.9,1.3,0.9,2.3c0,0.9-0.3,1.9-1,3c-0.7,1.1-1.7,2.2-3,3.3s-3,1.9-5.1,2.6s-4.4,1-7,1c-6.1,0-10.8-1.7-14.2-5.2
	c-3.4-3.5-5.1-8.2-5.1-14.1c0-2.8,0.4-5.4,1.2-7.8c0.8-2.4,2-4.4,3.6-6.1c1.6-1.7,3.6-3,5.9-3.9s4.9-1.4,7.8-1.4
	c3.7,0,6.9,0.8,9.5,2.3c2.6,1.6,4.6,3.6,5.9,6c1.3,2.5,2,5,2,7.5c0,2.4-0.7,3.9-2,4.6C333.3,289.6,331.4,290,328.9,290z
	 M310.4,284.6h17.1c-0.2-3.2-1.1-5.6-2.6-7.3c-1.5-1.6-3.5-2.4-6-2.4c-2.4,0-4.3,0.8-5.8,2.4C311.7,279,310.7,281.4,310.4,284.6z"/>
<path class="st2" d="M369.2,301.6v-1.2c-1.1,1.4-2.3,2.6-3.6,3.6c-1.2,1-2.6,1.7-4.1,2.2c-1.5,0.5-3.2,0.7-5.1,0.7
	c-2.3,0-4.3-0.5-6.1-1.4c-1.8-0.9-3.2-2.3-4.2-3.9c-1.2-2-1.8-4.9-1.8-8.7v-18.7c0-1.9,0.4-3.3,1.3-4.2c0.9-0.9,2-1.4,3.4-1.4
	c1.4,0,2.6,0.5,3.5,1.4c0.9,0.9,1.3,2.4,1.3,4.2v15.1c0,2.2,0.2,4,0.6,5.5c0.4,1.5,1,2.7,2,3.5s2.3,1.3,3.9,1.3
	c1.6,0,3.1-0.5,4.5-1.4c1.4-0.9,2.4-2.2,3.1-3.7c0.5-1.3,0.8-4.3,0.8-8.8v-11.5c0-1.9,0.4-3.3,1.3-4.2c0.9-0.9,2-1.4,3.4-1.4
	c1.4,0,2.5,0.5,3.4,1.4s1.3,2.3,1.3,4.2v27.4c0,1.8-0.4,3.2-1.2,4.1c-0.8,0.9-1.9,1.3-3.2,1.3c-1.3,0-2.4-0.5-3.2-1.4
	C369.6,304.6,369.2,303.2,369.2,301.6z"/>
<path class="st2" d="M396.1,273.7v1.1c1.7-2.2,3.5-3.8,5.5-4.8s4.2-1.5,6.8-1.5c2.5,0,4.7,0.5,6.7,1.6c2,1.1,3.4,2.6,4.4,4.6
	c0.6,1.2,1,2.4,1.2,3.7s0.3,3,0.3,5.1v17.6c0,1.9-0.4,3.3-1.3,4.3s-2,1.5-3.4,1.5c-1.4,0-2.6-0.5-3.4-1.5c-0.9-1-1.3-2.4-1.3-4.3
	v-15.8c0-3.1-0.4-5.5-1.3-7.2c-0.9-1.7-2.6-2.5-5.2-2.5c-1.7,0-3.2,0.5-4.6,1.5c-1.4,1-2.4,2.4-3,4.1c-0.5,1.4-0.7,4-0.7,7.9v11.8
	c0,1.9-0.4,3.4-1.3,4.3s-2,1.4-3.4,1.4c-1.4,0-2.5-0.5-3.4-1.5c-0.9-1-1.3-2.4-1.3-4.3v-27.3c0-1.8,0.4-3.1,1.2-4
	c0.8-0.9,1.9-1.3,3.2-1.3c0.8,0,1.6,0.2,2.3,0.6c0.7,0.4,1.2,1,1.6,1.8C395.9,271.6,396.1,272.6,396.1,273.7z"/>
<path class="st2" d="M492,290c0,1.6-0.4,3.4-1.2,5.2c-0.8,1.9-2,3.7-3.8,5.5c-1.7,1.8-3.9,3.3-6.5,4.4s-5.7,1.7-9.3,1.7
	c-2.7,0-5.1-0.3-7.3-0.8c-2.2-0.5-4.2-1.3-6-2.4c-1.8-1.1-3.4-2.5-4.9-4.2c-1.3-1.6-2.5-3.4-3.4-5.3c-0.9-2-1.7-4.1-2.1-6.3
	c-0.5-2.2-0.7-4.6-0.7-7.1c0-4.1,0.6-7.7,1.8-11c1.2-3.2,2.9-6,5.1-8.3s4.8-4,7.8-5.2s6.2-1.8,9.5-1.8c4.1,0,7.8,0.8,11,2.5
	c3.2,1.6,5.7,3.7,7.4,6.1c1.7,2.4,2.6,4.7,2.6,6.8c0,1.2-0.4,2.2-1.2,3.1c-0.8,0.9-1.8,1.3-3,1.3c-1.3,0-2.3-0.3-3-0.9
	c-0.7-0.6-1.4-1.7-2.2-3.2c-1.3-2.5-2.9-4.4-4.7-5.6c-1.8-1.2-4-1.9-6.7-1.9c-4.2,0-7.6,1.6-10.1,4.8c-2.5,3.2-3.8,7.8-3.8,13.7
	c0,3.9,0.6,7.2,1.7,9.9c1.1,2.6,2.7,4.6,4.7,5.9s4.4,1.9,7.1,1.9c3,0,5.5-0.7,7.5-2.2s3.6-3.6,4.6-6.5c0.4-1.3,1-2.4,1.6-3.3
	s1.7-1.3,3.1-1.3c1.2,0,2.3,0.4,3.2,1.3C491.5,287.7,492,288.7,492,290z"/>
<path class="st0" d="M535.9,287.7c0,2.8-0.4,5.4-1.3,7.8c-0.9,2.4-2.1,4.4-3.8,6.1c-1.7,1.7-3.6,3-6,3.9c-2.3,0.9-4.9,1.4-7.8,1.4
	c-2.9,0-5.4-0.5-7.7-1.4s-4.3-2.2-5.9-4s-2.9-3.8-3.8-6.1c-0.9-2.3-1.3-4.9-1.3-7.8c0-2.9,0.4-5.5,1.3-7.9c0.9-2.4,2.1-4.4,3.8-6.1
	c1.6-1.7,3.6-3,6-3.9c2.3-0.9,4.9-1.4,7.7-1.4c2.9,0,5.5,0.5,7.8,1.4c2.3,0.9,4.3,2.2,6,3.9c1.7,1.7,2.9,3.7,3.8,6.1
	C535.5,282.2,535.9,284.8,535.9,287.7z M526.5,287.7c0-3.9-0.8-6.9-2.5-9c-1.7-2.1-4-3.2-6.8-3.2c-1.8,0-3.5,0.5-4.9,1.4
	c-1.4,1-2.5,2.4-3.3,4.2c-0.8,1.9-1.1,4.1-1.1,6.5c0,2.5,0.4,4.6,1.1,6.5c0.8,1.8,1.8,3.3,3.2,4.2c1.4,1,3,1.5,4.9,1.5
	c2.9,0,5.1-1.1,6.8-3.2C525.6,294.5,526.5,291.5,526.5,287.7z"/>
<path class="st0" d="M574.8,288.4v12.6c0,2-0.5,3.5-1.4,4.5s-2.1,1.5-3.6,1.5c-1.4,0-2.6-0.5-3.5-1.5s-1.3-2.5-1.3-4.5v-15.1
	c0-2.4-0.1-4.2-0.2-5.5c-0.2-1.3-0.6-2.4-1.3-3.2s-1.8-1.3-3.4-1.3c-3.1,0-5.1,1.1-6.1,3.2c-1,2.1-1.5,5.2-1.5,9.1v12.8
	c0,2-0.4,3.4-1.3,4.4s-2.1,1.5-3.5,1.5c-1.4,0-2.6-0.5-3.5-1.5c-0.9-1-1.4-2.5-1.4-4.4v-27c0-1.8,0.4-3.1,1.2-4.1
	c0.8-0.9,1.9-1.4,3.2-1.4c1.3,0,2.4,0.4,3.2,1.3c0.9,0.9,1.3,2.1,1.3,3.6v0.9c1.6-2,3.4-3.4,5.3-4.3c1.9-0.9,3.9-1.4,6.2-1.4
	c2.4,0,4.4,0.5,6.1,1.4c1.7,0.9,3.1,2.4,4.2,4.3c1.6-1.9,3.3-3.4,5.1-4.3s3.8-1.4,6.1-1.4c2.6,0,4.8,0.5,6.7,1.5s3.3,2.5,4.2,4.4
	c0.8,1.7,1.2,4.4,1.2,8.1v18.5c0,2-0.5,3.5-1.4,4.5c-0.9,1-2.1,1.5-3.6,1.5c-1.4,0-2.6-0.5-3.5-1.5s-1.4-2.5-1.4-4.4V285
	c0-2-0.1-3.7-0.3-4.9c-0.2-1.2-0.6-2.3-1.4-3.1s-1.9-1.2-3.5-1.2c-1.2,0-2.4,0.4-3.5,1.1c-1.1,0.7-2,1.7-2.6,3
	C575.2,281.5,574.8,284.3,574.8,288.4z"/>
<path class="st0" d="M614.9,273.8v1.1c1.8-2.2,3.6-3.8,5.5-4.8s4.1-1.5,6.5-1.5c2.9,0,5.6,0.8,8,2.3c2.4,1.5,4.4,3.7,5.8,6.6
	c1.4,2.9,2.1,6.3,2.1,10.2c0,2.9-0.4,5.6-1.2,8s-1.9,4.5-3.4,6.1c-1.4,1.7-3.1,2.9-5.1,3.8c-2,0.9-4,1.3-6.3,1.3
	c-2.7,0-5-0.5-6.8-1.6s-3.6-2.7-5.2-4.8v14.2c0,4.2-1.5,6.2-4.5,6.2c-1.8,0-3-0.5-3.5-1.6s-0.9-2.6-0.9-4.7v-40.8
	c0-1.8,0.4-3.1,1.2-4c0.8-0.9,1.9-1.3,3.2-1.3c1.3,0,2.4,0.5,3.3,1.4C614.4,270.7,614.9,272,614.9,273.8z M633.4,287.5
	c0-2.5-0.4-4.6-1.1-6.4c-0.8-1.8-1.8-3.2-3.2-4.1c-1.4-1-2.8-1.4-4.5-1.4c-2.6,0-4.8,1-6.6,3.1c-1.8,2.1-2.7,5.1-2.7,9.1
	c0,3.8,0.9,6.7,2.7,8.8c1.8,2.1,4,3.1,6.6,3.1c1.6,0,3-0.5,4.4-1.4c1.3-0.9,2.4-2.3,3.2-4.1C633,292.3,633.4,290.1,633.4,287.5z"/>
<path class="st0" d="M675,301.6v-1.2c-1.1,1.4-2.3,2.6-3.6,3.6c-1.2,1-2.6,1.7-4.1,2.2c-1.5,0.5-3.2,0.7-5.1,0.7
	c-2.3,0-4.3-0.5-6.1-1.4s-3.2-2.3-4.2-3.9c-1.2-2-1.8-4.9-1.8-8.7v-18.7c0-1.9,0.4-3.3,1.3-4.2c0.9-0.9,2-1.4,3.4-1.4
	c1.4,0,2.6,0.5,3.5,1.4c0.9,0.9,1.3,2.4,1.3,4.2v15.1c0,2.2,0.2,4,0.6,5.5c0.4,1.5,1,2.7,2,3.5s2.3,1.3,3.9,1.3
	c1.6,0,3.1-0.5,4.5-1.4c1.4-0.9,2.4-2.2,3.1-3.7c0.5-1.3,0.8-4.3,0.8-8.8v-11.5c0-1.9,0.4-3.3,1.3-4.2c0.9-0.9,2-1.4,3.4-1.4
	c1.4,0,2.5,0.5,3.4,1.4c0.9,0.9,1.3,2.3,1.3,4.2v27.4c0,1.8-0.4,3.2-1.2,4.1c-0.8,0.9-1.9,1.3-3.2,1.3s-2.4-0.5-3.2-1.4
	C675.4,304.6,675,303.2,675,301.6z"/>
<path class="st0" d="M693.8,269.3h1v-5.7c0-1.5,0-2.7,0.1-3.6c0.1-0.9,0.3-1.6,0.7-2.2c0.4-0.6,0.9-1.2,1.6-1.6
	c0.7-0.4,1.5-0.6,2.3-0.6c1.2,0,2.3,0.5,3.3,1.4c0.6,0.6,1.1,1.3,1.2,2.2c0.2,0.9,0.3,2.1,0.3,3.7v6.4h3.5c1.3,0,2.4,0.3,3.1,1
	s1.1,1.4,1.1,2.4c0,1.3-0.5,2.2-1.5,2.7s-2.4,0.8-4.3,0.8h-1.8v17.4c0,1.5,0.1,2.6,0.2,3.4c0.1,0.8,0.4,1.4,0.8,1.9
	c0.5,0.5,1.2,0.7,2.2,0.7c0.6,0,1.3-0.1,2.3-0.3c0.9-0.2,1.7-0.3,2.2-0.3c0.8,0,1.4,0.3,2.1,0.9s0.9,1.4,0.9,2.3
	c0,1.5-0.8,2.7-2.5,3.5c-1.7,0.8-4.1,1.2-7.2,1.2c-3,0-5.2-0.5-6.7-1.5s-2.5-2.4-3-4.1c-0.5-1.8-0.7-4.1-0.7-7v-18.1h-1.2
	c-1.4,0-2.4-0.3-3.1-1c-0.7-0.6-1.1-1.5-1.1-2.5s0.4-1.8,1.1-2.4C691.3,269.6,692.4,269.3,693.8,269.3z"/>
<path class="st0" d="M744.8,290h-18.5c0,2.1,0.5,4,1.3,5.7c0.8,1.6,2,2.9,3.4,3.7s2.9,1.2,4.6,1.2c1.1,0,2.2-0.1,3.1-0.4
	c0.9-0.3,1.8-0.7,2.7-1.2c0.9-0.6,1.7-1.2,2.4-1.8c0.7-0.6,1.7-1.5,2.9-2.6c0.5-0.4,1.2-0.6,2.1-0.6c1,0,1.8,0.3,2.4,0.8
	c0.6,0.5,0.9,1.3,0.9,2.3c0,0.9-0.3,1.9-1,3c-0.7,1.1-1.7,2.2-3,3.3c-1.4,1.1-3,1.9-5.1,2.6s-4.4,1-7,1c-6.1,0-10.8-1.7-14.2-5.2
	c-3.4-3.5-5.1-8.2-5.1-14.1c0-2.8,0.4-5.4,1.2-7.8c0.8-2.4,2-4.4,3.6-6.1c1.6-1.7,3.6-3,5.9-3.9c2.3-0.9,4.9-1.4,7.8-1.4
	c3.7,0,6.9,0.8,9.5,2.3c2.6,1.6,4.6,3.6,5.9,6c1.3,2.5,2,5,2,7.5c0,2.4-0.7,3.9-2,4.6C749.2,289.6,747.2,290,744.8,290z
	 M726.3,284.6h17.1c-0.2-3.2-1.1-5.6-2.6-7.3c-1.5-1.6-3.5-2.4-6-2.4c-2.4,0-4.3,0.8-5.8,2.4C727.5,279,726.6,281.4,726.3,284.6z"/>
<path class="st0" d="M769.9,293.3v7.9c0,1.9-0.5,3.4-1.4,4.3s-2,1.4-3.4,1.4c-1.4,0-2.5-0.5-3.4-1.5c-0.9-1-1.3-2.4-1.3-4.3v-26.3
	c0-4.2,1.5-6.4,4.6-6.4c1.6,0,2.7,0.5,3.4,1.5c0.7,1,1.1,2.5,1.1,4.4c1.1-1.9,2.3-3.4,3.5-4.4c1.2-1,2.8-1.5,4.8-1.5
	c2,0,3.9,0.5,5.8,1.5s2.8,2.3,2.8,3.9c0,1.2-0.4,2.1-1.2,2.9c-0.8,0.8-1.7,1.1-2.6,1.1c-0.3,0-1.2-0.2-2.5-0.6
	c-1.3-0.4-2.5-0.6-3.5-0.6c-1.4,0-2.5,0.4-3.4,1.1c-0.9,0.7-1.6,1.8-2,3.2c-0.5,1.4-0.8,3.1-1,5.1S769.9,290.4,769.9,293.3z"/>
</svg>
