<?xml version="1.0" encoding="utf-8"?>
<!-- Generator: Adobe Illustrator 16.0.0, SVG Export Plug-In . SVG Version: 6.00 Build 0)  -->
<!DOCTYPE svg PUBLIC "-//W3C//DTD SVG 1.1//EN" "http://www.w3.org/Graphics/SVG/1.1/DTD/svg11.dtd">
<svg version="1.1" id="Layer_1" xmlns="http://www.w3.org/2000/svg" xmlns:xlink="http://www.w3.org/1999/xlink" x="0px" y="0px"
	 width="134.667px" height="30.615px" viewBox="0 0 134.667 30.615" enable-background="new 0 0 134.667 30.615"
	 xml:space="preserve">
<g enable-background="new    ">
	<path fill="#FFF8A7" d="M18.334,29.415H0.454l5.091-28.88h17.88L18.334,29.415z M12.007,6.535l-2.976,16.88h2.84l2.976-16.88
		H12.007z M31.612,12.175h3l-1.058,6h-3l-2.193,12.439h-7.52l5.359-30.399h7.52L31.612,12.175z"/>
	<path fill="#FFF8A7" d="M42.977,25.535l-0.197,1.12h20.16l-0.698,3.959h-27.68l1.594-9.039h19.76l0.205-1.16H36.36l0.691-3.92
		H64.33l-1.594,9.04H42.977z M37.224,10.975h28.879l-0.769,4.36H36.455L37.224,10.975z M42.922,9.735
		c-1.414,0-2.473-0.419-3.178-1.26c-0.706-0.84-0.935-1.953-0.69-3.34c0.245-1.386,0.867-2.5,1.868-3.34
		c1.001-0.84,2.208-1.26,3.623-1.26h17.92c1.413,0,2.472,0.42,3.178,1.26c0.705,0.84,0.935,1.954,0.69,3.34
		c-0.245,1.387-0.868,2.5-1.868,3.34c-1.002,0.84-2.209,1.26-3.623,1.26H42.922z M58.014,5.815c0.213,0,0.392-0.066,0.535-0.2
		c0.143-0.133,0.231-0.293,0.264-0.48c0.038-0.213,0.006-0.38-0.091-0.5c-0.099-0.12-0.256-0.18-0.469-0.18h-10.88
		c-0.188,0-0.358,0.06-0.512,0.18c-0.155,0.12-0.251,0.287-0.289,0.5c-0.033,0.187,0.005,0.347,0.116,0.48
		c0.109,0.133,0.258,0.2,0.445,0.2H58.014z"/>
	<path fill="#FFF8A7" d="M91.132,18.295c1.814,0,3.211,0.58,4.193,1.74c0.982,1.159,1.316,2.634,1.002,4.42
		c-0.315,1.787-1.169,3.26-2.561,4.42c-1.391,1.16-2.992,1.739-4.807,1.739H74.322c-1.814,0-3.213-0.579-4.193-1.739
		c-0.983-1.16-1.316-2.633-1.002-4.42c0.315-1.786,1.168-3.261,2.561-4.42c1.389-1.16,2.992-1.74,4.807-1.74H91.132z M79.205,13.575
		c-1.316,1.12-2.748,1.974-4.291,2.56c-1.543,0.587-3.102,0.88-4.676,0.88l-0.213-5.6c1.281,0,2.49-0.393,3.629-1.18
		c1.139-0.786,2.042-2.02,2.713-3.7h-4.881l1.059-6h17.84l-1.059,6h-4.84c0.077,1.68,0.547,2.914,1.408,3.7
		c0.861,0.787,1.932,1.18,3.211,1.18l-2.188,5.6c-1.572,0-3.027-0.293-4.363-0.88C81.216,15.549,80.101,14.695,79.205,13.575z
		 M87.914,25.215c0.213,0,0.404-0.073,0.578-0.22c0.172-0.146,0.277-0.326,0.314-0.54c0.038-0.214-0.004-0.394-0.124-0.54
		c-0.122-0.146-0.288-0.221-0.501-0.221H77.541c-0.213,0-0.406,0.074-0.578,0.221c-0.174,0.146-0.278,0.326-0.316,0.54
		c-0.037,0.214,0.004,0.394,0.126,0.54c0.12,0.146,0.288,0.22,0.501,0.22H87.914z M99.644,5.415h3l-1.059,6h-3l-1.001,5.68h-7.48
		l2.976-16.88h7.48L99.644,5.415z"/>
	<path fill="#FFF8A7" d="M119.402,11.775l-1.059,6h-7.959l-0.994,5.641h9.559l-1.057,6h-17.08l5.092-28.88h16.279l-1.059,6h-8.76
		l-0.924,5.24H119.402z M133.958,0.215l-5.359,30.399h-7.52l2.264-12.84h-3l1.059-6h3l2.037-11.56H133.958z"/>
</g>
</svg>
