<?xml version="1.0" encoding="utf-8"?>
<!-- Generator: Adobe Illustrator 16.0.0, SVG Export Plug-In . SVG Version: 6.00 Build 0)  -->
<!DOCTYPE svg PUBLIC "-//W3C//DTD SVG 1.1//EN" "http://www.w3.org/Graphics/SVG/1.1/DTD/svg11.dtd">
<svg version="1.1" id="Layer_1" xmlns="http://www.w3.org/2000/svg" xmlns:xlink="http://www.w3.org/1999/xlink" x="0px" y="0px"
	 width="100.592px" height="80px" viewBox="0 0 100.592 80" enable-background="new 0 0 100.592 80" xml:space="preserve">
<g>
	<g>
		<path fill="none" d="M1.164,78.994l15.538-43.682c3.901-10.973,10.289-10.973,14.191,0l15.538,43.682"/>
		<path fill="none" stroke="#9AD8FF" stroke-width="2" d="M1.164,78.994l15.538-43.682c3.901-10.973,10.289-10.973,14.191,0
			l15.538,43.682"/>
	</g>
	<g>
		<path fill="none" stroke="#9AD8FF" stroke-width="2" d="M40.165,62.053l6.026-16.94c1.514-4.255,3.51-6.384,5.505-6.384
			c1.996,0,3.989,2.129,5.503,6.384l6.026,16.94l6.025,16.941"/>
		<path fill="none" stroke="#9AD8FF" stroke-width="2" d="M40.165,62.053l6.026-16.94c1.514-4.255,3.51-6.384,5.505-6.384
			c1.996,0,3.989,2.129,5.503,6.384l6.026,16.94l6.025,16.941"/>
	</g>
</g>
<path fill="none" stroke="#9AD8FF" stroke-width="2" d="M43.374,10.815h-2.322c-0.707-5.048-5.033-8.937-10.276-8.937
	c-3.914,0-7.319,2.166-9.09,5.362H18.6c-4.443,0-8.044,3.6-8.044,8.042c0,4.444,3.601,8.046,8.044,8.046h11.171
	c0.184,0,0.364-0.017,0.545-0.028c0.181,0.014,0.362,0.028,0.545,0.028h12.513c3.456,0,6.255-2.801,6.255-6.257
	C49.629,13.614,46.83,10.815,43.374,10.815z"/>
<path fill="none" stroke="#9AD8FF" stroke-width="2" d="M93.623,41.809h-1.945c-0.592-4.228-4.215-7.485-8.605-7.485
	c-3.277,0-6.129,1.815-7.611,4.491h-2.586c-3.719,0-6.736,3.016-6.736,6.736c0,3.72,3.018,6.737,6.736,6.737h9.357
	c0.152,0,0.303-0.015,0.455-0.023c0.152,0.012,0.303,0.023,0.457,0.023h10.479c2.893,0,5.238-2.347,5.238-5.241
	C98.861,44.153,96.516,41.809,93.623,41.809z"/>
</svg>
