<svg id="favicon" data-name="favicon" xmlns="http://www.w3.org/2000/svg" width="512" height="512" viewBox="0 0 512 512">
	<style>
	path { fill: #000; }
	@media (prefers-color-scheme: dark) {
		path { fill: #FFF; }
	}
	</style>
	<path d="M248.33,416l.17-.24c.07-.1.13-.2.19-.3l.22-.37.09-.2q.13-.25.24-.51a.14.14,0,0,0,0-.06,8.05,8.05,0,0,0,.49-1.76c0-.14.05-.28.06-.42s0-.08,0-.12q0-.35,0-.69v-137a8.26,8.26,0,0,0-.07-1,2.17,2.17,0,0,0,0-.25,7.2,7.2,0,0,0-.16-.78,1.94,1.94,0,0,0-.05-.2,8.07,8.07,0,0,0-.33-.94v0a7.21,7.21,0,0,0-.43-.83l-.12-.21c-.15-.23-.3-.45-.47-.67l-.1-.13a8.67,8.67,0,0,0-.65-.71l-.17-.16c-.19-.17-.39-.33-.59-.49l-.2-.15a9,9,0,0,0-.84-.52h0l-59.19-31.47V100.72a8.24,8.24,0,0,0-.07-1,2.17,2.17,0,0,0,0-.25,7.2,7.2,0,0,0-.16-.78,1.94,1.94,0,0,0-.05-.2,8.07,8.07,0,0,0-.33-.94l0,0a6.34,6.34,0,0,0-.42-.82,2.39,2.39,0,0,0-.13-.21,6,6,0,0,0-.46-.66l-.1-.15c-.2-.24-.42-.48-.64-.7l-.18-.16c-.19-.17-.39-.33-.59-.49l-.2-.15a7.31,7.31,0,0,0-.84-.52h0L118.76,59.94a8,8,0,0,0-7.51,0L47.81,93.67h0a6.72,6.72,0,0,0-.85.53l-.19.14c-.21.16-.41.32-.6.49A1.29,1.29,0,0,1,46,95a8.54,8.54,0,0,0-.64.71,1.71,1.71,0,0,0-.11.14,7.75,7.75,0,0,0-.46.66l-.13.21a7.16,7.16,0,0,0-.42.83l0,0a8.07,8.07,0,0,0-.33.94c0,.07,0,.14-.05.2a7.2,7.2,0,0,0-.16.78c0,.08,0,.17,0,.25a8.26,8.26,0,0,0-.07,1V377.61c0,.23,0,.45,0,.68v.13c0,.15,0,.3.07.45a8.81,8.81,0,0,0,.47,1.71s0,.05,0,.08.16.33.24.49a2.14,2.14,0,0,0,.1.22,3.87,3.87,0,0,0,.21.34,2.23,2.23,0,0,0,.2.33c0,.07.1.14.15.21s.2.29.31.42l.08.09a8.26,8.26,0,0,0,1.21,1.15c.14.11.28.22.43.32l.08,0c.2.13.4.25.62.37h0L174.6,452l0,0h0l.06,0c.25.13.5.24.76.35l.22.08.65.2.26.07c.22,0,.44.09.67.12l.23,0a9.08,9.08,0,0,0,.91.05h0a9.08,9.08,0,0,0,.91-.05l.23,0c.23,0,.45-.07.67-.12l.25-.07.65-.2.23-.08c.25-.11.51-.22.75-.35l.06,0h0l0,0,63.35-33.67h0c.22-.12.44-.25.65-.39l0,0c.17-.12.35-.25.51-.38s.45-.38.66-.58l0,0c.15-.15.28-.3.42-.46a1.27,1.27,0,0,0,.1-.12C248.14,416.24,248.23,416.1,248.33,416ZM59.56,114.05,107,139.25V274.34h0a8.26,8.26,0,0,0,.07,1c0,.08,0,.16,0,.25a7.2,7.2,0,0,0,.16.78c0,.06,0,.13,0,.19a7.51,7.51,0,0,0,.34.94v0a6.52,6.52,0,0,0,.43.83l.12.2a6.32,6.32,0,0,0,.47.68,1.13,1.13,0,0,0,.1.13,8.54,8.54,0,0,0,.64.71l.17.15c.19.17.39.34.6.5l.19.14a9.29,9.29,0,0,0,.85.53h0l59.19,31.45V431.69L59.56,372.78ZM170.43,235.8,123,261V139.25L170.42,114Zm16,77.05,47.42-25.21V406.48l-47.42,25.21Zm-8-13.87-46.38-24.64,46.39-24.68,46.38,24.67ZM115,76.06l46.38,24.66L115,125.38,68.61,100.73Z"/>
	<path d="M468.44,100.73a8,8,0,0,0-4.25-7.07L400.85,60l0,0h0l-.07,0c-.24-.13-.49-.24-.75-.35l-.23-.08-.64-.2-.26-.07q-.33-.08-.66-.12l-.25,0a8.49,8.49,0,0,0-.88,0h0a8.33,8.33,0,0,0-.88,0l-.25,0q-.33,0-.66.12l-.26.07-.64.2-.23.09a6.36,6.36,0,0,0-.75.34l-.07,0,0,0h0l-63.37,33.7a8,8,0,0,0-4.24,7.07v67.44h0a8,8,0,0,0,.07,1,2.34,2.34,0,0,0,0,.26,6.57,6.57,0,0,0,.16.77c0,.07,0,.14,0,.2a7.46,7.46,0,0,0,.33.94s0,0,0,0a7.91,7.91,0,0,0,.42.82,2.39,2.39,0,0,0,.13.21,6,6,0,0,0,.46.66l.1.14a7.18,7.18,0,0,0,.65.7,1.29,1.29,0,0,0,.17.16,7.22,7.22,0,0,0,.6.5l.19.14a8.1,8.1,0,0,0,.85.53h0L393.26,209a8,8,0,0,0,7.51,0l63.42-33.72h0a8.1,8.1,0,0,0,.85-.53l.19-.15a7.11,7.11,0,0,0,.6-.49l.17-.16a7.08,7.08,0,0,0,.64-.7l.11-.14a7.92,7.92,0,0,0,.46-.67l.13-.2c.15-.27.29-.54.42-.83,0,0,0,0,0,0a7.46,7.46,0,0,0,.33-.94c0-.07,0-.13.05-.2a6.57,6.57,0,0,0,.16-.77c0-.09,0-.17,0-.26a8,8,0,0,0,.07-1h0Zm-16,54.12L405,129.63V80.31l47.42,25.22ZM389,80.32v49.32l-47.43,25.22V105.54Zm8,112.5-46.39-24.64L397,143.5l46.38,24.67Z"/>
	<path d="M468.44,274.33a8,8,0,0,0-4.25-7.07l-63.34-33.68,0,0h0l-.06,0a7.35,7.35,0,0,0-.76-.34l-.23-.09-.64-.2a2.44,2.44,0,0,0-.26-.06c-.22-.06-.44-.09-.66-.13l-.25,0a6.4,6.4,0,0,0-.88-.06h0a6.54,6.54,0,0,0-.89.06l-.24,0c-.22,0-.44.07-.66.13a2.44,2.44,0,0,0-.26.06l-.65.2-.22.09a7.35,7.35,0,0,0-.76.34l-.06,0h0l0,0-63.37,33.69a8,8,0,0,0-4.24,7.07v137h0a8,8,0,0,0,.07,1,2.34,2.34,0,0,0,0,.26,6.57,6.57,0,0,0,.16.77l0,.2a7.46,7.46,0,0,0,.33.94l0,0a8.06,8.06,0,0,0,.42.83l.13.2a6.11,6.11,0,0,0,.46.67l.1.14a8.55,8.55,0,0,0,.65.7l.17.16a7.11,7.11,0,0,0,.6.49l.19.15a6.66,6.66,0,0,0,.85.52h0l63.43,33.7a8,8,0,0,0,7.51,0l63.42-33.71h0a6.72,6.72,0,0,0,.85-.53l.19-.14a7.22,7.22,0,0,0,.6-.5L466,417a7.2,7.2,0,0,0,.64-.71l.11-.13c.16-.22.32-.44.46-.67l.13-.21a9,9,0,0,0,.42-.82l0,0a8.07,8.07,0,0,0,.33-.94c0-.07,0-.14.05-.2a6.74,6.74,0,0,0,.16-.78c0-.08,0-.17,0-.25a8.24,8.24,0,0,0,.07-1h0ZM452.44,398,405,372.75V253.92l47.42,25.21ZM389,253.92V372.75L341.58,398V279.15Zm8,182-46.39-24.65L397,386.62l46.38,24.66Z"/>
</svg>